<svg id="svg" xmlns="http://www.w3.org/2000/svg" xmlns:xlink="http://www.w3.org/1999/xlink" width="400" height="400" viewBox="0, 0, 400,400"><g id="svgg"><path id="path0" d="M264.246 1.947 C 225.752 11.895,195.313 49.524,195.313 87.161 C 195.313 97.024,196.375 98.408,203.958 98.426 C 244.518 98.520,282.813 56.403,282.813 11.700 C 282.813 -1.282,280.811 -2.333,264.246 1.947 M258.984 95.613 C 249.746 97.393,241.627 99.875,228.156 105.038 C 202.360 114.925,203.110 114.925,177.207 104.997 C 144.374 92.413,122.175 92.919,94.989 106.873 C 38.096 136.072,20.684 211.580,51.221 296.677 C 66.080 338.085,99.277 384.261,122.577 395.931 L 129.920 399.609 141.915 399.860 C 155.749 400.148,157.192 399.846,173.183 393.309 C 199.853 382.405,214.448 382.250,240.234 392.596 C 282.855 409.695,304.162 399.951,338.500 347.656 C 348.239 332.825,357.052 314.902,362.801 298.236 C 365.280 291.050,364.941 289.870,359.730 287.565 C 301.808 261.943,295.386 183.060,348.051 144.113 C 355.163 138.852,355.379 137.721,350.475 131.386 C 329.897 104.805,290.742 89.495,258.984 95.613 " stroke="none" fill="#000000" fill-rule="evenodd"></path></g></svg>