<svg xmlns="http://www.w3.org/2000/svg" viewBox="0 0 469.047 469.047"><path d="M296.188 40.495a222.99 222.99 0 0 0-28.326-6.069l4.658-31.659a255.221 255.221 0 0 1 32.406 6.944l-8.738 30.784z"/><path d="m387.613 466.291-99.35-50.031c-17.557 3.718-35.604 5.6-53.74 5.6-117.419 0-234-86.651-234-210.93S117.104 0 234.523 0v32c-111.383 0-202 80.268-202 178.93s90.617 178.93 202 178.93c17.653 0 35.199-2.03 52.149-6.034a16 16 0 0 1 10.875 1.281l81.262 40.921v-82.993a16 16 0 0 1 4.862-11.487c34.082-33.046 52.852-75.883 52.852-120.618 0-69.399-45.966-133.144-117.103-162.396l12.17-29.596C409.444 50.952 468.523 124.72 468.523 210.93c0 51.283-20.44 100.287-57.714 138.73V452c.964 14.5-10.786 21.25-23.196 14.291z"/><path d="M154.644 348.634c-19.652-8.89-36.77-22.698-49.395-40.189l-8.933-12.375c-8.663-12.002-7.354-28.31 3.115-38.774l34.937-34.929c12.928-12.926 34.936-11.03 45.536 3.659l12.102 16.765 74.882-74.863-16.759-12.089c-14.694-10.6-16.591-32.617-3.657-45.546l34.935-34.927c10.464-10.459 26.764-11.77 38.764-3.114l12.325 8.892a122.803 122.803 0 0 1 40.317 49.642c13.804 31.049 6.827 68.492-17.171 92.484l-108.327 108.3c-15.499 15.494-49.125 36.763-92.671 17.064zm13.251-29.128c19.159 8.494 41.97 4.253 56.795-10.568l108.327-108.3c14.838-14.834 19.079-37.682 10.556-56.853a90.767 90.767 0 0 0-29.8-36.692l-10.945-7.896-32.07 32.063 30.1 21.714c7.88 5.685 8.823 17.42 1.951 24.291L201.344 278.706c-6.871 6.869-18.6 5.926-24.286-1.951l-21.725-30.098-32.072 32.064 7.937 10.995a90.764 90.764 0 0 0 36.697 29.79c19.16 8.494-.036-.016 0 0 19.16 8.494-.036-.016 0 0 19.16 8.494-.036-.016 0 0z"/></svg>