<svg id="svg" xmlns="http://www.w3.org/2000/svg" xmlns:xlink="http://www.w3.org/1999/xlink" width="400" height="400" viewBox="0, 0, 400,400" version="1.1"><g id="svgg"><path id="path0" d="M203.600 200.400 L 203.600 238.800 258.200 238.800 C 311.980 238.800,312.800 238.812,312.800 239.576 C 312.800 240.003,312.620 240.464,312.400 240.600 C 312.180 240.736,312.000 241.636,312.000 242.600 C 312.000 243.564,311.820 244.464,311.600 244.600 C 311.380 244.736,311.200 245.229,311.200 245.695 C 311.200 246.162,310.995 247.186,310.744 247.972 C 310.151 249.826,309.934 250.600,310.008 250.600 C 310.040 250.600,309.692 251.552,309.234 252.715 C 308.775 253.878,308.400 255.273,308.400 255.815 C 308.400 256.357,308.220 256.800,308.000 256.800 C 307.780 256.800,307.600 257.160,307.600 257.600 C 307.600 258.040,307.420 258.400,307.200 258.400 C 306.980 258.400,306.800 258.724,306.800 259.120 C 306.800 260.014,305.906 261.993,305.500 261.997 C 305.335 261.999,305.200 262.360,305.200 262.800 C 305.200 263.240,305.020 263.600,304.800 263.600 C 304.580 263.600,304.400 263.960,304.400 264.400 C 304.400 264.840,304.220 265.200,304.000 265.200 C 303.780 265.200,303.600 265.560,303.600 266.000 C 303.600 266.440,303.420 266.800,303.200 266.800 C 302.980 266.800,302.800 267.036,302.800 267.325 C 302.800 267.613,302.440 268.236,302.000 268.708 C 301.560 269.180,301.200 269.844,301.200 270.183 C 301.200 270.522,301.020 270.800,300.800 270.800 C 300.580 270.800,300.400 271.120,300.400 271.512 C 300.400 271.903,300.040 272.483,299.600 272.800 C 299.160 273.117,298.800 273.657,298.800 274.000 C 298.800 274.343,298.440 274.883,298.000 275.200 C 297.560 275.517,297.200 276.007,297.200 276.288 C 297.200 276.570,297.059 276.800,296.886 276.800 C 296.714 276.800,296.279 277.295,295.921 277.900 C 295.563 278.505,294.793 279.540,294.211 280.200 C 293.629 280.860,292.879 281.915,292.543 282.545 C 291.913 283.727,284.151 291.570,280.351 294.865 C 279.168 295.890,277.458 297.375,276.552 298.165 C 275.645 298.954,274.777 299.600,274.623 299.600 C 274.205 299.600,273.200 300.685,273.200 301.136 C 273.200 301.548,277.580 305.014,298.800 321.400 C 302.650 324.373,307.420 328.066,309.400 329.606 C 311.380 331.147,316.150 334.840,320.000 337.814 C 332.613 347.557,334.445 348.987,335.730 350.094 C 337.391 351.524,337.491 351.499,339.600 349.156 C 340.590 348.056,343.605 344.951,346.300 342.256 C 348.995 339.561,351.200 337.226,351.200 337.068 C 351.200 336.909,352.010 335.969,353.000 334.979 C 353.990 333.989,354.800 333.012,354.800 332.808 C 354.800 332.603,355.232 332.005,355.759 331.477 C 356.287 330.950,357.033 329.906,357.418 329.159 C 357.803 328.412,358.452 327.509,358.859 327.153 C 359.267 326.797,359.600 326.284,359.600 326.014 C 359.600 325.743,360.140 325.017,360.800 324.400 C 361.460 323.783,362.000 323.081,362.000 322.840 C 362.000 322.598,362.150 322.400,362.332 322.400 C 362.515 322.400,362.920 321.905,363.232 321.300 C 363.545 320.695,364.115 319.851,364.500 319.425 C 364.885 318.998,365.200 318.496,365.200 318.308 C 365.200 318.120,365.560 317.580,366.000 317.108 C 366.440 316.636,366.800 316.013,366.800 315.725 C 366.800 315.436,366.980 315.200,367.200 315.200 C 367.420 315.200,367.600 314.922,367.600 314.583 C 367.600 314.244,367.960 313.580,368.400 313.108 C 368.840 312.636,369.200 312.013,369.200 311.725 C 369.200 311.436,369.380 311.200,369.600 311.200 C 369.820 311.200,370.000 310.840,370.000 310.400 C 370.000 309.960,370.135 309.599,370.300 309.597 C 370.465 309.595,370.800 309.190,371.045 308.697 C 371.289 308.204,372.324 306.230,373.345 304.312 C 374.365 302.394,375.200 300.549,375.200 300.212 C 375.200 299.875,375.380 299.600,375.600 299.600 C 375.820 299.600,376.000 299.240,376.000 298.800 C 376.000 298.360,376.180 298.000,376.400 298.000 C 376.620 298.000,376.800 297.640,376.800 297.200 C 376.800 296.760,376.980 296.400,377.200 296.400 C 377.420 296.400,377.600 296.040,377.600 295.600 C 377.600 295.160,377.780 294.800,378.000 294.800 C 378.220 294.800,378.400 294.528,378.400 294.195 C 378.400 293.862,378.560 293.277,378.756 292.895 C 378.952 292.513,379.512 291.300,380.000 290.200 C 380.488 289.100,381.048 287.887,381.244 287.505 C 381.440 287.123,381.600 286.538,381.600 286.205 C 381.600 285.872,381.780 285.600,382.000 285.600 C 382.220 285.600,382.400 285.161,382.400 284.624 C 382.400 284.087,382.580 283.536,382.800 283.400 C 383.020 283.264,383.200 282.803,383.200 282.376 C 383.200 281.949,383.380 281.600,383.600 281.600 C 383.820 281.600,384.000 281.060,384.000 280.400 C 384.000 279.740,384.180 279.200,384.400 279.200 C 384.620 279.200,384.800 278.660,384.800 278.000 C 384.800 277.340,384.980 276.800,385.200 276.800 C 385.420 276.800,385.600 276.260,385.600 275.600 C 385.600 274.940,385.780 274.400,386.000 274.400 C 386.220 274.400,386.400 273.961,386.400 273.424 C 386.400 272.887,386.580 272.336,386.800 272.200 C 387.020 272.064,387.200 271.524,387.200 271.000 C 387.200 270.476,387.380 269.936,387.600 269.800 C 387.820 269.664,388.000 268.933,388.000 268.176 C 388.000 267.419,388.160 266.800,388.356 266.800 C 388.552 266.800,388.809 266.215,388.927 265.500 C 389.046 264.785,389.335 263.435,389.571 262.500 C 391.032 256.710,391.197 255.914,391.475 253.300 C 391.598 252.145,391.857 251.200,392.050 251.200 C 392.242 251.200,392.400 250.300,392.400 249.200 C 392.400 248.100,392.580 247.200,392.800 247.200 C 393.022 247.200,393.200 246.133,393.200 244.800 C 393.200 243.467,393.378 242.400,393.600 242.400 C 393.822 242.400,394.000 241.341,394.000 240.024 C 394.000 238.717,394.180 237.536,394.400 237.400 C 394.620 237.264,394.800 235.723,394.800 233.976 C 394.800 232.125,394.967 230.800,395.200 230.800 C 395.441 230.800,395.600 229.141,395.600 226.624 C 395.600 224.271,395.775 222.339,396.000 222.200 C 396.257 222.041,396.400 215.604,396.400 204.200 C 396.400 192.796,396.257 186.359,396.000 186.200 C 395.780 186.064,395.600 184.354,395.600 182.400 C 395.600 180.446,395.420 178.736,395.200 178.600 C 394.980 178.464,394.800 177.193,394.800 175.776 C 394.800 174.325,394.625 173.200,394.400 173.200 C 394.180 173.200,394.000 172.221,394.000 171.024 C 394.000 169.827,393.820 168.736,393.600 168.600 C 393.380 168.464,393.200 167.654,393.200 166.800 C 393.200 165.946,393.020 165.136,392.800 165.000 C 392.580 164.864,392.400 164.133,392.400 163.376 L 392.400 162.000 298.000 162.000 L 203.600 162.000 203.600 200.400 " stroke="none" fill="#4484f3" fill-rule="evenodd"></path><path id="path1" d="M89.000 240.855 C 85.970 243.264,82.093 246.274,77.735 249.600 C 75.573 251.250,72.430 253.680,70.750 255.000 C 69.071 256.320,66.756 258.120,65.606 259.000 C 63.625 260.516,57.291 265.477,56.000 266.525 C 55.670 266.792,54.770 267.450,54.000 267.986 C 53.230 268.523,52.510 269.063,52.400 269.186 C 52.136 269.483,44.530 275.404,39.000 279.619 C 36.580 281.463,34.398 283.158,34.152 283.386 C 33.906 283.614,31.887 285.150,29.667 286.800 C 27.446 288.450,25.622 289.967,25.614 290.170 C 25.589 290.825,28.483 296.400,28.848 296.400 C 29.041 296.400,29.200 296.760,29.200 297.200 C 29.200 297.640,29.380 298.000,29.600 298.000 C 29.820 298.000,30.000 298.360,30.000 298.800 C 30.000 299.240,30.180 299.600,30.400 299.600 C 30.620 299.600,30.800 299.920,30.800 300.312 C 30.800 300.703,31.160 301.283,31.600 301.600 C 32.040 301.917,32.400 302.497,32.400 302.888 C 32.400 303.280,32.580 303.600,32.800 303.600 C 33.020 303.600,33.200 303.836,33.200 304.125 C 33.200 304.413,33.515 304.998,33.900 305.425 C 34.285 305.851,34.854 306.692,35.164 307.293 C 35.474 307.895,36.059 308.742,36.464 309.177 C 36.869 309.611,37.200 310.204,37.200 310.495 C 37.200 310.786,37.560 311.283,38.000 311.600 C 38.440 311.917,38.800 312.380,38.800 312.629 C 38.800 312.878,39.340 313.646,40.000 314.337 C 40.660 315.028,41.200 315.849,41.200 316.163 C 41.200 316.477,41.335 316.793,41.500 316.867 C 41.665 316.940,42.300 317.769,42.912 318.709 C 44.128 320.579,44.741 321.373,46.700 323.611 C 47.415 324.428,48.000 325.222,48.000 325.374 C 48.000 325.527,48.900 326.529,50.000 327.600 C 51.100 328.671,52.000 329.742,52.000 329.979 C 52.000 330.217,53.427 331.893,55.170 333.705 C 56.914 335.517,60.007 338.755,62.044 340.900 C 64.081 343.045,65.995 344.800,66.297 344.800 C 66.600 344.800,66.736 344.980,66.600 345.200 C 66.464 345.420,66.551 345.600,66.794 345.600 C 67.036 345.600,68.659 347.040,70.400 348.800 C 72.141 350.560,73.691 352.000,73.844 352.000 C 73.997 352.000,75.056 352.855,76.196 353.900 C 77.336 354.945,78.870 356.250,79.605 356.800 C 80.340 357.350,81.166 358.025,81.442 358.300 C 81.717 358.575,82.153 358.800,82.411 358.800 C 82.668 358.800,83.383 359.340,84.000 360.000 C 84.617 360.660,85.320 361.200,85.564 361.200 C 85.808 361.200,86.572 361.740,87.263 362.400 C 87.954 363.060,88.722 363.600,88.971 363.600 C 89.220 363.600,89.683 363.960,90.000 364.400 C 90.317 364.840,90.857 365.200,91.200 365.200 C 91.543 365.200,92.083 365.560,92.400 366.000 C 92.717 366.440,93.207 366.800,93.488 366.800 C 93.770 366.800,94.000 366.950,94.000 367.132 C 94.000 367.315,94.495 367.720,95.100 368.032 C 95.705 368.345,96.549 368.915,96.975 369.300 C 97.402 369.685,97.987 370.000,98.275 370.000 C 98.564 370.000,98.800 370.180,98.800 370.400 C 98.800 370.620,99.078 370.800,99.417 370.800 C 99.756 370.800,100.420 371.160,100.892 371.600 C 101.364 372.040,101.987 372.400,102.275 372.400 C 102.564 372.400,102.800 372.580,102.800 372.800 C 102.800 373.020,103.160 373.200,103.600 373.200 C 104.040 373.200,104.400 373.345,104.400 373.523 C 104.400 373.877,107.188 375.200,107.934 375.200 C 108.190 375.200,108.400 375.380,108.400 375.600 C 108.400 375.820,108.670 376.000,109.000 376.000 C 109.330 376.000,109.600 376.180,109.600 376.400 C 109.600 376.620,109.960 376.800,110.400 376.800 C 110.840 376.800,111.200 376.980,111.200 377.200 C 111.200 377.420,111.560 377.600,112.000 377.600 C 112.440 377.600,112.800 377.780,112.800 378.000 C 112.800 378.220,113.160 378.400,113.600 378.400 C 114.040 378.400,114.400 378.580,114.400 378.800 C 114.400 379.020,114.760 379.200,115.200 379.200 C 115.640 379.200,116.000 379.380,116.000 379.600 C 116.000 379.820,116.360 380.000,116.800 380.000 C 117.240 380.000,117.600 380.180,117.600 380.400 C 117.600 380.620,117.960 380.800,118.400 380.800 C 118.840 380.800,119.200 380.980,119.200 381.200 C 119.200 381.420,119.560 381.600,120.000 381.600 C 120.440 381.600,120.800 381.780,120.800 382.000 C 120.800 382.220,121.160 382.400,121.600 382.400 C 122.040 382.400,122.400 382.580,122.400 382.800 C 122.400 383.020,122.672 383.200,123.005 383.200 C 123.338 383.200,123.923 383.357,124.305 383.550 C 127.411 385.114,128.579 385.600,129.238 385.600 C 129.657 385.600,130.000 385.780,130.000 386.000 C 130.000 386.220,130.349 386.400,130.776 386.400 C 131.203 386.400,131.664 386.580,131.800 386.800 C 131.936 387.020,132.487 387.200,133.024 387.200 C 133.561 387.200,134.000 387.380,134.000 387.600 C 134.000 387.820,134.414 388.000,134.920 388.000 C 135.426 388.000,136.011 388.148,136.220 388.328 C 136.429 388.508,137.950 389.067,139.600 389.569 C 141.250 390.071,142.929 390.654,143.331 390.864 C 143.732 391.073,144.947 391.350,146.031 391.478 C 147.114 391.606,148.000 391.866,148.000 392.056 C 148.000 392.245,148.529 392.400,149.176 392.400 C 149.823 392.400,150.464 392.580,150.600 392.800 C 150.736 393.020,151.467 393.200,152.224 393.200 C 152.981 393.200,153.600 393.380,153.600 393.600 C 153.600 393.820,154.320 394.000,155.200 394.000 C 156.080 394.000,156.800 394.162,156.800 394.360 C 156.800 394.558,157.565 394.822,158.500 394.947 C 162.589 395.494,163.618 395.706,163.826 396.042 C 163.948 396.239,164.836 396.400,165.800 396.400 C 166.764 396.400,167.664 396.580,167.800 396.800 C 167.936 397.020,169.027 397.200,170.224 397.200 C 171.421 397.200,172.400 397.352,172.400 397.537 C 172.400 397.722,173.615 397.912,175.100 397.959 C 176.585 398.006,177.860 398.214,177.933 398.422 C 178.007 398.630,179.546 398.800,181.353 398.800 C 183.432 398.800,184.822 398.982,185.135 399.295 C 185.837 399.997,224.874 399.978,225.108 399.275 C 225.214 398.959,226.385 398.800,228.610 398.800 C 230.448 398.800,232.064 398.620,232.200 398.400 C 232.336 398.180,233.787 398.000,235.424 398.000 C 237.141 398.000,238.400 397.831,238.400 397.600 C 238.400 397.378,239.467 397.200,240.800 397.200 C 242.133 397.200,243.200 397.022,243.200 396.800 C 243.200 396.580,244.179 396.400,245.376 396.400 C 246.573 396.400,247.664 396.220,247.800 396.000 C 247.936 395.780,248.746 395.600,249.600 395.600 C 250.454 395.600,251.264 395.420,251.400 395.200 C 251.536 394.980,252.346 394.800,253.200 394.800 C 254.054 394.800,254.864 394.620,255.000 394.400 C 255.136 394.180,255.867 394.000,256.624 394.000 C 257.381 394.000,258.000 393.820,258.000 393.600 C 258.000 393.380,258.720 393.200,259.600 393.200 C 260.480 393.200,261.200 393.020,261.200 392.800 C 261.200 392.580,261.819 392.400,262.576 392.400 C 263.333 392.400,264.064 392.220,264.200 392.000 C 264.336 391.780,264.866 391.600,265.378 391.600 C 266.383 391.600,270.165 390.554,271.295 389.963 C 271.677 389.763,272.341 389.600,272.771 389.600 C 273.201 389.600,273.664 389.420,273.800 389.200 C 273.936 388.980,274.487 388.800,275.024 388.800 C 275.561 388.800,276.000 388.620,276.000 388.400 C 276.000 388.180,276.540 388.000,277.200 388.000 C 277.860 388.000,278.400 387.853,278.400 387.672 C 278.400 387.492,279.300 387.100,280.400 386.800 C 281.500 386.500,282.400 386.108,282.400 385.928 C 282.400 385.747,282.839 385.600,283.376 385.600 C 283.913 385.600,284.464 385.420,284.600 385.200 C 284.736 384.980,285.197 384.800,285.624 384.800 C 286.051 384.800,286.400 384.620,286.400 384.400 C 286.400 384.180,286.760 384.000,287.200 384.000 C 287.640 384.000,288.000 383.820,288.000 383.600 C 288.000 383.380,288.450 383.200,289.000 383.200 C 289.550 383.200,290.000 383.020,290.000 382.800 C 290.000 382.580,290.360 382.400,290.800 382.400 C 291.240 382.400,291.600 382.220,291.600 382.000 C 291.600 381.780,291.960 381.600,292.400 381.600 C 292.840 381.600,293.200 381.420,293.200 381.200 C 293.200 380.980,293.560 380.800,294.000 380.800 C 294.440 380.800,294.800 380.620,294.800 380.400 C 294.800 380.180,295.160 380.000,295.600 380.000 C 296.040 380.000,296.400 379.820,296.400 379.600 C 296.400 379.380,296.760 379.200,297.200 379.200 C 297.640 379.200,298.000 379.020,298.000 378.800 C 298.000 378.580,298.360 378.400,298.800 378.400 C 299.240 378.400,299.600 378.220,299.600 378.000 C 299.600 377.780,299.960 377.600,300.400 377.600 C 300.840 377.600,301.200 377.420,301.200 377.200 C 301.200 376.980,301.560 376.800,302.000 376.800 C 302.440 376.800,302.800 376.620,302.800 376.400 C 302.800 376.180,303.081 376.000,303.424 376.000 C 303.767 376.000,303.936 375.820,303.800 375.600 C 303.664 375.380,303.827 375.200,304.162 375.200 C 304.882 375.200,308.540 373.230,308.733 372.739 C 308.807 372.553,309.212 372.400,309.633 372.400 C 310.055 372.400,310.400 372.232,310.400 372.027 C 310.400 371.822,310.739 371.546,311.152 371.415 C 311.566 371.284,312.310 370.825,312.804 370.396 C 313.299 369.968,313.827 369.693,313.979 369.787 C 314.130 369.881,314.507 369.607,314.815 369.179 C 315.124 368.750,315.657 368.400,316.000 368.400 C 316.343 368.400,316.883 368.040,317.200 367.600 C 317.517 367.160,317.962 366.800,318.188 366.799 C 318.415 366.799,319.230 366.259,320.000 365.600 C 320.770 364.941,321.532 364.401,321.693 364.401 C 321.999 364.400,323.520 363.110,325.820 360.900 C 326.564 360.185,327.366 359.600,327.601 359.600 C 327.836 359.600,328.427 359.236,328.914 358.791 C 331.453 356.474,332.514 355.600,332.788 355.600 C 332.955 355.600,334.038 354.668,335.195 353.529 L 337.299 351.458 335.884 350.229 C 334.477 349.007,333.378 348.147,320.000 337.814 C 316.150 334.840,311.380 331.147,309.400 329.606 C 307.420 328.066,302.650 324.373,298.800 321.400 C 288.656 313.567,285.309 310.970,278.652 305.766 C 273.069 301.401,272.646 301.147,271.752 301.626 C 271.229 301.906,270.800 302.285,270.800 302.468 C 270.800 302.650,270.564 302.800,270.275 302.800 C 269.987 302.800,269.364 303.160,268.892 303.600 C 268.420 304.040,267.838 304.400,267.600 304.400 C 267.362 304.400,266.780 304.760,266.308 305.200 C 265.836 305.640,265.213 306.000,264.925 306.000 C 264.636 306.000,264.400 306.180,264.400 306.400 C 264.400 306.620,264.040 306.800,263.600 306.800 C 263.160 306.800,262.800 306.980,262.800 307.200 C 262.800 307.420,262.440 307.600,262.000 307.600 C 261.560 307.600,261.200 307.780,261.200 308.000 C 261.200 308.220,261.019 308.400,260.798 308.400 C 260.577 308.400,259.463 308.850,258.323 309.400 C 257.183 309.950,256.014 310.400,255.725 310.400 C 255.436 310.400,255.200 310.547,255.200 310.728 C 255.200 310.908,254.300 311.300,253.200 311.600 C 252.100 311.900,251.200 312.292,251.200 312.472 C 251.200 312.653,250.838 312.800,250.395 312.800 C 249.952 312.800,249.232 312.980,248.795 313.200 C 248.358 313.420,247.642 313.780,247.205 314.000 C 246.768 314.220,246.059 314.400,245.629 314.400 C 245.199 314.400,244.736 314.580,244.600 314.800 C 244.464 315.020,243.823 315.200,243.176 315.200 C 242.529 315.200,242.000 315.380,242.000 315.600 C 242.000 315.820,241.460 316.000,240.800 316.000 C 240.140 316.000,239.600 316.180,239.600 316.400 C 239.600 316.620,238.880 316.800,238.000 316.800 C 237.120 316.800,236.400 316.980,236.400 317.200 C 236.400 317.420,235.601 317.600,234.624 317.600 C 233.647 317.600,232.736 317.780,232.600 318.000 C 232.464 318.220,231.553 318.400,230.576 318.400 C 229.599 318.400,228.800 318.580,228.800 318.800 C 228.800 319.022,227.744 319.200,226.433 319.200 C 225.132 319.200,224.007 319.371,223.933 319.579 C 223.860 319.788,222.220 319.993,220.290 320.034 C 218.359 320.075,216.684 320.265,216.566 320.455 C 216.259 320.952,193.708 320.899,193.400 320.400 C 193.264 320.180,191.824 320.000,190.200 320.000 C 188.576 320.000,187.136 319.820,187.000 319.600 C 186.864 319.380,185.773 319.200,184.576 319.200 C 183.379 319.200,182.400 319.020,182.400 318.800 C 182.400 318.580,181.601 318.400,180.624 318.400 C 179.647 318.400,178.736 318.220,178.600 318.000 C 178.464 317.780,177.643 317.600,176.776 317.600 C 175.909 317.600,175.200 317.420,175.200 317.200 C 175.200 316.980,174.671 316.800,174.024 316.800 C 173.377 316.800,172.736 316.620,172.600 316.400 C 172.464 316.180,171.823 316.000,171.176 316.000 C 170.529 316.000,170.000 315.820,170.000 315.600 C 170.000 315.380,169.460 315.200,168.800 315.200 C 168.140 315.200,167.600 315.020,167.600 314.800 C 167.600 314.580,167.060 314.400,166.400 314.400 C 165.740 314.400,165.200 314.220,165.200 314.000 C 165.200 313.780,164.761 313.600,164.224 313.600 C 163.687 313.600,163.136 313.420,163.000 313.200 C 162.864 312.980,162.403 312.800,161.976 312.800 C 161.549 312.800,161.200 312.620,161.200 312.400 C 161.200 312.180,160.761 312.000,160.224 312.000 C 159.687 312.000,159.136 311.820,159.000 311.600 C 158.864 311.380,158.403 311.200,157.976 311.200 C 157.549 311.200,157.200 311.020,157.200 310.800 C 157.200 310.580,157.019 310.400,156.798 310.400 C 156.577 310.400,155.463 309.950,154.323 309.400 C 153.183 308.850,152.014 308.400,151.725 308.400 C 151.436 308.400,151.200 308.220,151.200 308.000 C 151.200 307.780,150.840 307.600,150.400 307.600 C 149.960 307.600,149.600 307.420,149.600 307.200 C 149.600 306.980,149.240 306.800,148.800 306.800 C 148.360 306.800,148.000 306.620,148.000 306.400 C 148.000 306.180,147.722 306.000,147.383 306.000 C 147.044 306.000,146.380 305.640,145.908 305.200 C 145.436 304.760,144.813 304.400,144.525 304.400 C 144.236 304.400,144.000 304.220,144.000 304.000 C 144.000 303.780,143.680 303.600,143.288 303.600 C 142.897 303.600,142.317 303.240,142.000 302.800 C 141.683 302.360,141.193 302.000,140.912 302.000 C 140.630 302.000,140.400 301.820,140.400 301.600 C 140.400 301.380,140.130 301.200,139.800 301.200 C 139.470 301.200,139.200 301.020,139.200 300.800 C 139.200 300.580,138.930 300.400,138.600 300.400 C 138.270 300.400,138.000 300.250,138.000 300.068 C 138.000 299.885,137.508 299.480,136.907 299.168 C 136.306 298.855,135.289 298.105,134.648 297.500 C 134.006 296.895,133.320 296.400,133.122 296.400 C 132.925 296.400,132.310 295.946,131.756 295.392 C 131.202 294.838,130.265 294.074,129.674 293.695 C 129.083 293.316,128.361 292.825,128.069 292.603 C 127.269 291.996,119.200 283.922,119.200 283.729 C 119.200 283.637,117.940 282.319,116.400 280.800 C 114.860 279.281,113.600 277.886,113.600 277.700 C 113.600 277.515,112.880 276.659,112.000 275.800 C 111.120 274.941,110.400 274.070,110.400 273.866 C 110.400 273.661,110.083 273.203,109.694 272.847 C 109.306 272.491,108.636 271.525,108.204 270.700 C 107.772 269.875,107.279 269.200,107.109 269.200 C 106.939 269.200,106.800 268.964,106.800 268.675 C 106.800 268.387,106.485 267.794,106.100 267.358 C 105.212 266.353,104.017 264.409,103.729 263.500 C 103.607 263.115,103.348 262.800,103.153 262.800 C 102.959 262.800,102.800 262.607,102.800 262.372 C 102.800 262.137,102.260 261.159,101.600 260.200 C 100.940 259.241,100.400 258.263,100.400 258.028 C 100.400 257.793,100.220 257.600,100.000 257.600 C 99.780 257.600,99.600 257.240,99.600 256.800 C 99.600 256.360,99.420 256.000,99.200 256.000 C 98.980 256.000,98.800 255.640,98.800 255.200 C 98.800 254.760,98.620 254.400,98.400 254.400 C 98.180 254.400,98.000 254.040,98.000 253.600 C 98.000 253.160,97.820 252.800,97.600 252.800 C 97.380 252.800,97.200 252.440,97.200 252.000 C 97.200 251.560,97.020 251.200,96.800 251.200 C 96.580 251.200,96.400 250.739,96.400 250.176 C 96.400 249.596,96.227 249.260,96.000 249.400 C 95.767 249.544,95.600 249.137,95.600 248.424 C 95.600 247.751,95.420 247.200,95.200 247.200 C 94.980 247.200,94.800 246.840,94.800 246.400 C 94.800 245.960,94.620 245.600,94.400 245.600 C 94.180 245.600,94.000 245.150,94.000 244.600 C 94.000 244.050,93.820 243.600,93.600 243.600 C 93.380 243.600,93.200 243.238,93.200 242.795 C 93.200 242.352,93.033 241.677,92.829 241.295 C 92.625 240.913,92.361 240.285,92.242 239.900 C 91.924 238.874,91.236 239.077,89.000 240.855 " stroke="none" fill="#34ab54" fill-rule="evenodd"></path><path id="path2" d="M24.233 111.683 C 23.665 112.824,23.200 113.992,23.200 114.279 C 23.200 114.565,23.020 114.800,22.800 114.800 C 22.580 114.800,22.400 115.250,22.400 115.800 C 22.400 116.350,22.220 116.800,22.000 116.800 C 21.780 116.800,21.600 117.160,21.600 117.600 C 21.600 118.040,21.420 118.400,21.200 118.400 C 20.980 118.400,20.800 118.760,20.800 119.200 C 20.800 119.640,20.620 120.000,20.400 120.000 C 20.180 120.000,20.000 120.439,20.000 120.976 C 20.000 121.513,19.820 122.064,19.600 122.200 C 19.380 122.336,19.200 122.797,19.200 123.224 C 19.200 123.651,19.020 124.000,18.800 124.000 C 18.580 124.000,18.400 124.272,18.400 124.605 C 18.400 124.938,18.220 125.568,18.000 126.005 C 17.780 126.442,17.420 127.158,17.200 127.595 C 16.980 128.032,16.800 128.752,16.800 129.195 C 16.800 129.638,16.620 130.000,16.400 130.000 C 16.180 130.000,16.000 130.349,16.000 130.776 C 16.000 131.203,15.820 131.664,15.600 131.800 C 15.380 131.936,15.200 132.476,15.200 133.000 C 15.200 133.524,15.020 134.064,14.800 134.200 C 14.580 134.336,14.400 134.876,14.400 135.400 C 14.400 135.924,14.220 136.464,14.000 136.600 C 13.780 136.736,13.600 137.199,13.600 137.629 C 13.600 138.059,13.438 138.723,13.239 139.105 C 13.040 139.487,12.660 140.610,12.393 141.600 C 12.127 142.590,11.763 143.760,11.585 144.200 C 11.406 144.640,11.169 145.450,11.058 146.000 C 10.947 146.550,10.651 147.720,10.401 148.600 C 9.269 152.587,8.400 156.952,8.400 158.655 C 8.400 159.395,8.220 160.000,8.000 160.000 C 7.780 160.000,7.600 160.900,7.600 162.000 C 7.600 163.100,7.420 164.000,7.200 164.000 C 6.980 164.000,6.800 164.979,6.800 166.176 C 6.800 167.373,6.620 168.464,6.400 168.600 C 6.180 168.736,6.000 169.996,6.000 171.400 C 6.000 172.804,5.820 174.064,5.600 174.200 C 5.380 174.336,5.200 175.931,5.200 177.744 C 5.200 179.557,5.034 181.211,4.830 181.420 C 3.779 182.501,3.781 218.000,4.832 218.000 C 5.035 218.000,5.200 219.620,5.200 221.600 C 5.200 223.733,5.363 225.200,5.600 225.200 C 5.829 225.200,6.000 226.400,6.000 228.000 C 6.000 229.600,6.171 230.800,6.400 230.800 C 6.620 230.800,6.800 231.779,6.800 232.976 C 6.800 234.173,6.980 235.264,7.200 235.400 C 7.420 235.536,7.600 236.436,7.600 237.400 C 7.600 238.364,7.780 239.264,8.000 239.400 C 8.220 239.536,8.400 240.300,8.400 241.098 C 8.400 241.896,8.677 243.730,9.015 245.174 C 9.597 247.663,9.796 248.459,10.839 252.500 C 11.080 253.435,11.440 254.513,11.639 254.895 C 11.838 255.277,12.000 256.031,12.000 256.571 C 12.000 257.111,12.180 257.664,12.400 257.800 C 12.620 257.936,12.800 258.577,12.800 259.224 C 12.800 259.871,12.980 260.400,13.200 260.400 C 13.420 260.400,13.600 260.940,13.600 261.600 C 13.600 262.260,13.780 262.800,14.000 262.800 C 14.220 262.800,14.400 263.340,14.400 264.000 C 14.400 264.660,14.580 265.200,14.800 265.200 C 15.020 265.200,15.200 265.639,15.200 266.176 C 15.200 266.713,15.380 267.264,15.600 267.400 C 15.820 267.536,16.000 268.087,16.000 268.624 C 16.000 269.161,16.180 269.600,16.400 269.600 C 16.620 269.600,16.800 270.050,16.800 270.600 C 16.800 271.150,16.980 271.600,17.200 271.600 C 17.420 271.600,17.600 272.050,17.600 272.600 C 17.600 273.150,17.780 273.600,18.000 273.600 C 18.220 273.600,18.400 273.960,18.400 274.400 C 18.400 274.840,18.580 275.200,18.800 275.200 C 19.020 275.200,19.200 275.740,19.200 276.400 C 19.200 277.060,19.380 277.600,19.600 277.600 C 19.820 277.600,20.000 277.960,20.000 278.400 C 20.000 278.840,20.180 279.200,20.400 279.200 C 20.620 279.200,20.800 279.560,20.800 280.000 C 20.800 280.440,20.980 280.800,21.200 280.800 C 21.420 280.800,21.600 281.239,21.600 281.776 C 21.600 282.313,21.780 282.864,22.000 283.000 C 22.220 283.136,22.400 283.597,22.400 284.024 C 22.400 284.451,22.580 284.800,22.800 284.800 C 23.020 284.800,23.200 285.160,23.200 285.600 C 23.200 286.040,23.380 286.400,23.600 286.400 C 23.820 286.400,24.000 286.760,24.000 287.200 C 24.000 287.640,24.180 288.000,24.400 288.000 C 24.620 288.000,24.800 288.349,24.800 288.776 C 24.800 290.375,27.762 288.672,34.000 283.486 C 34.330 283.211,36.580 281.475,39.000 279.626 C 44.729 275.250,52.146 269.472,52.400 269.186 C 52.510 269.063,53.230 268.523,54.000 267.986 C 54.770 267.450,55.670 266.792,56.000 266.525 C 57.291 265.477,63.625 260.516,65.606 259.000 C 66.756 258.120,69.071 256.320,70.750 255.000 C 72.430 253.680,75.572 251.250,77.733 249.600 C 79.894 247.950,82.773 245.734,84.131 244.674 C 85.489 243.615,87.721 241.905,89.092 240.874 C 91.910 238.754,91.880 238.866,90.740 234.800 C 90.277 233.150,89.812 231.213,89.705 230.496 C 89.599 229.779,89.351 229.094,89.156 228.973 C 88.960 228.852,88.800 228.169,88.800 227.456 C 88.800 226.743,88.638 225.989,88.441 225.780 C 88.088 225.406,87.785 223.748,87.348 219.800 C 87.226 218.700,86.963 217.629,86.763 217.420 C 86.563 217.211,86.400 215.852,86.400 214.400 C 86.400 212.948,86.215 211.575,85.988 211.348 C 85.192 210.552,85.924 183.715,86.795 181.800 C 86.995 181.360,87.252 180.190,87.366 179.200 C 87.821 175.273,88.097 173.784,88.441 173.420 C 88.638 173.211,88.800 172.367,88.800 171.544 C 88.800 170.721,88.980 169.936,89.200 169.800 C 89.420 169.664,89.600 169.122,89.600 168.595 C 89.600 168.069,89.764 167.224,89.964 166.719 C 91.458 162.944,91.785 160.400,90.775 160.400 C 90.567 160.400,88.265 158.735,85.658 156.700 C 83.052 154.665,80.324 152.550,79.596 152.000 C 78.868 151.450,76.790 149.830,74.980 148.400 C 70.685 145.009,63.836 139.696,51.774 130.400 C 49.633 128.750,47.189 126.860,46.344 126.200 C 45.498 125.540,43.410 123.923,41.703 122.608 C 39.996 121.292,37.226 119.132,35.546 117.808 C 33.866 116.483,31.092 114.320,29.381 113.000 C 27.669 111.680,26.044 110.377,25.768 110.105 C 25.368 109.710,25.058 110.028,24.233 111.683 " stroke="none" fill="#fbbb04" fill-rule="evenodd"></path><path id="path3" d="M183.403 0.276 C 181.425 0.363,179.634 0.606,179.423 0.817 C 179.212 1.028,177.917 1.200,176.544 1.200 C 175.171 1.200,173.936 1.380,173.800 1.600 C 173.664 1.820,172.584 2.000,171.400 2.000 C 170.216 2.000,169.136 2.180,169.000 2.400 C 168.864 2.620,167.874 2.800,166.800 2.800 C 165.726 2.800,164.736 2.980,164.600 3.200 C 164.464 3.420,163.744 3.600,163.000 3.600 C 162.256 3.600,161.536 3.780,161.400 4.000 C 161.264 4.220,160.353 4.400,159.376 4.400 C 158.399 4.400,157.600 4.580,157.600 4.800 C 157.600 5.020,156.880 5.200,156.000 5.200 C 155.120 5.200,154.400 5.380,154.400 5.600 C 154.400 5.820,153.680 6.000,152.800 6.000 C 151.920 6.000,151.200 6.180,151.200 6.400 C 151.200 6.620,150.660 6.800,150.000 6.800 C 149.340 6.800,148.800 6.980,148.800 7.200 C 148.800 7.420,148.181 7.600,147.424 7.600 C 146.667 7.600,145.936 7.780,145.800 8.000 C 145.664 8.220,145.224 8.400,144.822 8.400 C 143.995 8.400,140.406 9.443,138.600 10.208 C 137.940 10.488,136.275 11.045,134.900 11.447 C 133.525 11.849,132.400 12.317,132.400 12.489 C 132.400 12.660,131.961 12.800,131.424 12.800 C 130.887 12.800,130.336 12.980,130.200 13.200 C 130.064 13.420,129.603 13.600,129.176 13.600 C 128.749 13.600,128.400 13.780,128.400 14.000 C 128.400 14.220,127.950 14.400,127.400 14.400 C 126.850 14.400,126.399 14.535,126.397 14.700 C 126.393 15.059,124.456 16.000,123.720 16.000 C 123.434 16.000,123.200 16.180,123.200 16.400 C 123.200 16.620,122.840 16.800,122.400 16.800 C 121.960 16.800,121.600 16.980,121.600 17.200 C 121.600 17.420,121.465 17.579,121.300 17.553 C 120.309 17.396,119.190 17.660,119.400 18.000 C 119.540 18.227,119.204 18.400,118.624 18.400 C 118.061 18.400,117.600 18.580,117.600 18.800 C 117.600 19.020,117.240 19.200,116.800 19.200 C 116.360 19.200,116.000 19.380,116.000 19.600 C 116.000 19.820,115.629 20.000,115.176 20.000 C 114.723 20.000,114.464 20.180,114.600 20.400 C 114.740 20.627,114.404 20.800,113.824 20.800 C 113.261 20.800,112.800 20.946,112.800 21.125 C 112.800 21.304,112.170 21.698,111.400 22.000 C 110.630 22.302,110.000 22.674,110.000 22.826 C 110.000 22.978,109.460 23.327,108.800 23.600 C 108.140 23.873,107.600 24.255,107.600 24.449 C 107.600 24.642,107.324 24.800,106.987 24.800 C 106.219 24.800,102.247 26.779,102.067 27.251 C 101.993 27.443,101.588 27.600,101.167 27.600 C 100.745 27.600,100.400 27.758,100.400 27.951 C 100.400 28.145,99.860 28.527,99.200 28.800 C 98.540 29.073,98.000 29.455,98.000 29.649 C 98.000 29.842,97.764 30.000,97.475 30.000 C 97.187 30.000,96.602 30.315,96.175 30.700 C 95.749 31.085,94.905 31.655,94.300 31.968 C 93.695 32.280,93.200 32.685,93.200 32.868 C 93.200 33.050,92.996 33.200,92.747 33.200 C 92.498 33.200,92.003 33.516,91.647 33.903 C 91.291 34.289,90.505 34.860,89.900 35.170 C 89.295 35.481,88.800 35.885,88.800 36.068 C 88.800 36.250,88.512 36.400,88.160 36.400 C 87.809 36.400,87.017 36.940,86.400 37.600 C 85.783 38.260,85.063 38.800,84.800 38.800 C 84.537 38.800,83.825 39.331,83.218 39.981 C 82.611 40.630,81.879 41.215,81.591 41.281 C 81.071 41.399,80.852 41.567,78.433 43.700 C 77.747 44.305,77.085 44.800,76.962 44.800 C 76.838 44.800,76.046 45.520,75.200 46.400 C 74.354 47.280,73.478 48.000,73.251 48.000 C 73.025 48.000,72.656 48.315,72.432 48.700 C 72.208 49.085,72.019 49.262,72.012 49.093 C 71.988 48.478,53.600 67.147,53.600 67.787 C 53.600 68.150,53.420 68.336,53.200 68.200 C 52.980 68.064,52.800 68.143,52.800 68.374 C 52.800 68.606,51.900 69.715,50.800 70.839 C 49.700 71.962,48.800 73.049,48.800 73.254 C 48.800 73.459,48.215 74.227,47.500 74.960 C 45.664 76.844,44.800 77.946,44.800 78.405 C 44.800 78.622,44.658 78.800,44.485 78.800 C 44.140 78.800,41.200 83.021,41.200 83.516 C 41.200 83.685,40.840 84.083,40.400 84.400 C 39.960 84.717,39.600 85.257,39.600 85.600 C 39.600 85.943,39.240 86.483,38.800 86.800 C 38.360 87.117,38.000 87.657,38.000 88.000 C 38.000 88.343,37.640 88.883,37.200 89.200 C 36.760 89.517,36.400 90.057,36.400 90.400 C 36.400 90.743,36.040 91.283,35.600 91.600 C 35.160 91.917,34.800 92.407,34.800 92.688 C 34.800 92.970,34.654 93.200,34.475 93.200 C 34.296 93.200,33.905 93.822,33.607 94.582 C 33.309 95.342,32.915 95.871,32.732 95.758 C 32.550 95.645,32.400 95.923,32.400 96.376 C 32.400 96.829,32.220 97.200,32.000 97.200 C 31.780 97.200,31.600 97.436,31.600 97.725 C 31.600 98.013,31.240 98.636,30.800 99.108 C 30.360 99.580,30.000 100.244,30.000 100.583 C 30.000 100.922,29.820 101.200,29.600 101.200 C 29.380 101.200,29.200 101.487,29.200 101.838 C 29.200 102.189,28.864 102.954,28.453 103.538 C 28.042 104.122,27.153 105.723,26.476 107.095 C 25.060 109.966,24.823 109.484,29.381 113.000 C 31.092 114.320,33.866 116.483,35.546 117.808 C 37.226 119.132,39.996 121.292,41.703 122.608 C 43.410 123.923,45.498 125.540,46.344 126.200 C 47.189 126.860,49.633 128.750,51.774 130.400 C 63.836 139.696,70.685 145.009,74.980 148.400 C 76.790 149.830,78.868 151.450,79.596 152.000 C 80.324 152.550,83.008 154.629,85.560 156.621 C 90.551 160.515,91.600 161.135,91.600 160.187 C 91.600 159.864,91.780 159.600,92.000 159.600 C 92.220 159.600,92.400 159.060,92.400 158.400 C 92.400 157.740,92.580 157.200,92.800 157.200 C 93.020 157.200,93.200 156.851,93.200 156.424 C 93.200 155.997,93.380 155.536,93.600 155.400 C 93.820 155.264,94.000 154.703,94.000 154.153 C 94.000 153.588,94.174 153.260,94.400 153.400 C 94.634 153.545,94.800 153.130,94.800 152.400 C 94.800 151.670,94.966 151.255,95.200 151.400 C 95.427 151.540,95.600 151.204,95.600 150.624 C 95.600 150.061,95.780 149.600,96.000 149.600 C 96.220 149.600,96.400 149.240,96.400 148.800 C 96.400 148.360,96.580 148.000,96.800 148.000 C 97.020 148.000,97.200 147.766,97.200 147.480 C 97.200 146.744,98.141 144.807,98.500 144.803 C 98.665 144.801,98.800 144.440,98.800 144.000 C 98.800 143.560,98.980 143.200,99.200 143.200 C 99.420 143.200,99.600 142.840,99.600 142.400 C 99.600 141.960,99.780 141.600,100.000 141.600 C 100.220 141.600,100.400 141.401,100.400 141.158 C 100.400 140.915,100.940 139.916,101.600 138.938 C 102.260 137.960,102.800 136.989,102.800 136.780 C 102.800 136.571,102.980 136.400,103.200 136.400 C 103.420 136.400,103.600 136.164,103.600 135.875 C 103.600 135.587,103.960 134.964,104.400 134.492 C 104.840 134.020,105.200 133.438,105.200 133.200 C 105.200 132.962,105.560 132.380,106.000 131.908 C 106.440 131.436,106.800 130.813,106.800 130.525 C 106.800 130.236,106.991 130.000,107.224 130.000 C 107.457 130.000,107.556 129.853,107.445 129.673 C 107.334 129.493,107.593 129.093,108.021 128.785 C 108.450 128.476,108.800 127.975,108.800 127.672 C 108.800 127.369,109.340 126.617,110.000 126.000 C 110.660 125.383,111.200 124.681,111.200 124.440 C 111.200 124.198,111.380 124.000,111.600 124.000 C 111.820 124.000,112.000 123.700,112.000 123.333 C 112.000 122.967,112.111 122.778,112.248 122.914 C 112.551 123.218,113.600 122.221,113.600 121.629 C 113.600 121.393,113.780 121.200,114.000 121.200 C 114.220 121.200,114.400 121.012,114.400 120.783 C 114.400 120.553,115.829 118.952,117.575 117.225 C 119.321 115.497,120.641 113.975,120.508 113.842 C 120.375 113.709,120.497 113.600,120.779 113.600 C 121.061 113.600,121.946 112.847,122.746 111.926 C 125.098 109.219,126.859 107.597,128.800 106.352 C 129.350 105.999,130.404 105.146,131.142 104.455 C 131.881 103.765,132.637 103.200,132.824 103.200 C 133.011 103.200,133.614 102.750,134.164 102.200 C 134.714 101.650,135.325 101.200,135.522 101.200 C 135.720 101.200,136.406 100.705,137.048 100.100 C 137.689 99.495,138.706 98.745,139.307 98.432 C 139.908 98.120,140.400 97.715,140.400 97.532 C 140.400 97.350,140.670 97.200,141.000 97.200 C 141.330 97.200,141.600 97.020,141.600 96.800 C 141.600 96.580,141.920 96.400,142.312 96.400 C 142.703 96.400,143.283 96.040,143.600 95.600 C 143.917 95.160,144.497 94.800,144.888 94.800 C 145.280 94.800,145.600 94.648,145.600 94.463 C 145.600 94.277,146.455 93.692,147.500 93.163 C 148.545 92.633,149.460 92.065,149.533 91.900 C 149.607 91.735,149.974 91.600,150.349 91.600 C 150.724 91.600,152.240 90.970,153.717 90.200 C 155.193 89.430,156.656 88.800,156.968 88.800 C 157.279 88.800,157.596 88.612,157.673 88.382 C 157.749 88.152,158.214 87.934,158.706 87.897 C 159.198 87.860,159.600 87.688,159.600 87.515 C 159.600 87.342,159.960 87.200,160.400 87.200 C 160.840 87.200,161.200 87.059,161.200 86.887 C 161.200 86.715,161.695 86.534,162.300 86.484 C 162.905 86.434,163.460 86.215,163.533 85.997 C 163.607 85.778,164.202 85.600,164.857 85.600 C 165.549 85.600,165.944 85.432,165.800 85.200 C 165.656 84.967,166.055 84.800,166.753 84.800 C 167.413 84.800,168.064 84.620,168.200 84.400 C 168.336 84.180,168.876 84.000,169.400 84.000 C 169.924 84.000,170.464 83.820,170.600 83.600 C 170.736 83.380,171.377 83.200,172.024 83.200 C 172.671 83.200,173.200 83.020,173.200 82.800 C 173.200 82.580,173.830 82.400,174.600 82.400 C 175.370 82.400,176.000 82.220,176.000 82.000 C 176.000 81.780,176.799 81.600,177.776 81.600 C 178.753 81.600,179.664 81.420,179.800 81.200 C 179.936 80.980,180.656 80.800,181.400 80.800 C 182.144 80.800,182.864 80.620,183.000 80.400 C 183.136 80.180,184.407 80.000,185.824 80.000 C 187.275 80.000,188.400 79.825,188.400 79.600 C 188.400 79.363,189.859 79.200,191.976 79.200 C 193.943 79.200,195.664 79.020,195.800 78.800 C 195.953 78.553,199.404 78.400,204.824 78.400 C 210.408 78.400,213.600 78.545,213.600 78.800 C 213.600 79.037,215.067 79.200,217.200 79.200 C 219.333 79.200,220.800 79.363,220.800 79.600 C 220.800 79.822,221.867 80.000,223.200 80.000 C 224.520 80.000,225.600 80.145,225.600 80.322 C 225.600 80.499,226.365 80.688,227.300 80.743 C 228.235 80.798,229.171 81.013,229.380 81.221 C 229.589 81.430,230.343 81.600,231.056 81.600 C 231.769 81.600,232.464 81.780,232.600 82.000 C 232.736 82.220,233.467 82.400,234.224 82.400 C 234.981 82.400,235.600 82.580,235.600 82.800 C 235.600 83.020,236.219 83.200,236.976 83.200 C 237.733 83.200,238.464 83.380,238.600 83.600 C 238.736 83.820,239.377 84.000,240.024 84.000 C 240.671 84.000,241.200 84.180,241.200 84.400 C 241.200 84.620,241.650 84.800,242.200 84.800 C 242.750 84.800,243.200 84.980,243.200 85.200 C 243.200 85.420,243.650 85.600,244.200 85.600 C 244.750 85.600,245.200 85.742,245.200 85.915 C 245.200 86.088,245.602 86.260,246.094 86.297 C 246.586 86.334,247.051 86.552,247.127 86.782 C 247.204 87.012,247.576 87.200,247.953 87.200 C 248.331 87.200,248.811 87.349,249.020 87.530 C 249.229 87.712,250.165 88.101,251.100 88.394 C 252.035 88.688,252.800 89.079,252.800 89.264 C 252.800 89.449,253.160 89.600,253.600 89.600 C 254.040 89.600,254.400 89.780,254.400 90.000 C 254.400 90.220,254.724 90.400,255.120 90.400 C 255.516 90.400,256.056 90.616,256.320 90.880 C 256.584 91.144,256.800 91.222,256.800 91.053 C 256.800 90.884,257.323 91.118,257.962 91.573 C 258.601 92.028,259.321 92.400,259.562 92.400 C 259.803 92.400,260.000 92.580,260.000 92.800 C 260.000 93.020,260.371 93.200,260.824 93.200 C 261.277 93.200,261.536 93.380,261.400 93.600 C 261.264 93.820,261.523 94.000,261.976 94.000 C 262.429 94.000,262.800 94.168,262.800 94.373 C 262.800 94.578,263.138 94.853,263.551 94.984 C 263.964 95.116,264.819 95.667,265.451 96.211 C 266.083 96.754,266.785 97.199,267.012 97.200 C 267.238 97.200,267.683 97.560,268.000 98.000 C 268.317 98.440,268.806 98.800,269.085 98.800 C 269.365 98.800,270.060 99.205,270.629 99.700 C 271.198 100.195,271.747 100.548,271.848 100.484 C 271.950 100.421,272.745 101.110,273.616 102.017 C 274.487 102.924,275.200 103.571,275.200 103.455 C 275.200 103.339,276.325 104.311,277.700 105.615 C 281.548 109.264,281.333 109.383,293.031 97.111 C 293.928 96.170,295.780 94.464,297.147 93.319 C 298.514 92.175,299.625 91.140,299.616 91.019 C 299.607 90.899,299.672 90.845,299.760 90.900 C 299.847 90.955,303.526 87.400,307.935 83.000 C 312.343 78.600,317.806 73.180,320.075 70.955 C 322.344 68.731,325.010 66.022,326.000 64.935 C 326.990 63.849,328.387 62.550,329.105 62.049 C 329.822 61.549,330.304 60.968,330.175 60.760 C 330.046 60.551,330.133 60.430,330.368 60.490 C 331.057 60.667,338.800 53.172,338.800 52.329 C 338.800 51.546,336.331 48.800,335.627 48.800 C 335.408 48.800,335.035 48.440,334.800 48.000 C 334.565 47.560,334.184 47.200,333.955 47.200 C 333.725 47.200,332.831 46.487,331.969 45.616 C 331.106 44.744,330.395 44.159,330.388 44.316 C 330.381 44.472,330.192 44.285,329.968 43.900 C 329.744 43.515,328.986 42.903,328.285 42.541 C 327.584 42.178,326.531 41.368,325.945 40.741 C 325.358 40.113,324.561 39.600,324.173 39.600 C 323.784 39.600,323.578 39.489,323.714 39.352 C 324.018 39.049,323.021 38.000,322.429 38.000 C 322.193 38.000,322.000 37.820,322.000 37.600 C 322.000 37.380,321.770 37.200,321.488 37.200 C 321.207 37.200,320.717 36.840,320.400 36.400 C 320.083 35.960,319.575 35.600,319.272 35.600 C 318.969 35.600,318.217 35.060,317.600 34.400 C 316.983 33.740,316.231 33.200,315.928 33.200 C 315.625 33.200,315.117 32.840,314.800 32.400 C 314.483 31.960,313.943 31.600,313.600 31.600 C 313.257 31.600,312.717 31.240,312.400 30.800 C 312.083 30.360,311.503 30.000,311.112 30.000 C 310.720 30.000,310.400 29.820,310.400 29.600 C 310.400 29.380,310.130 29.200,309.800 29.200 C 309.470 29.200,309.200 29.020,309.200 28.800 C 309.200 28.580,308.930 28.400,308.600 28.400 C 308.270 28.400,308.000 28.220,308.000 28.000 C 308.000 27.780,307.842 27.600,307.648 27.600 C 307.326 27.600,303.149 25.241,302.184 24.513 C 301.956 24.341,301.506 24.141,301.184 24.070 C 300.863 23.998,300.540 23.773,300.467 23.570 C 300.393 23.366,299.988 23.200,299.567 23.200 C 299.145 23.200,298.800 23.020,298.800 22.800 C 298.800 22.580,298.440 22.400,298.000 22.400 C 297.560 22.400,297.200 22.220,297.200 22.000 C 297.200 21.780,296.840 21.600,296.400 21.600 C 295.960 21.600,295.600 21.420,295.600 21.200 C 295.600 20.980,295.240 20.800,294.800 20.800 C 294.360 20.800,294.000 20.620,294.000 20.400 C 294.000 20.180,293.640 20.000,293.200 20.000 C 292.760 20.000,292.400 19.854,292.400 19.675 C 292.400 19.496,291.770 19.102,291.000 18.800 C 290.230 18.498,289.600 18.104,289.600 17.925 C 289.600 17.746,289.240 17.600,288.800 17.600 C 288.360 17.600,288.000 17.420,288.000 17.200 C 288.000 16.980,287.640 16.800,287.200 16.800 C 286.760 16.800,286.400 16.620,286.400 16.400 C 286.400 16.180,286.128 16.000,285.795 16.000 C 285.462 16.000,284.832 15.820,284.395 15.600 C 283.958 15.380,283.242 15.020,282.805 14.800 C 282.368 14.580,281.738 14.400,281.405 14.400 C 281.072 14.400,280.800 14.220,280.800 14.000 C 280.800 13.780,280.451 13.600,280.024 13.600 C 279.597 13.600,279.136 13.420,279.000 13.200 C 278.864 12.980,278.328 12.800,277.810 12.800 C 277.291 12.800,276.807 12.631,276.733 12.425 C 276.660 12.218,276.150 11.985,275.600 11.906 C 275.050 11.827,273.970 11.468,273.200 11.108 C 270.519 9.856,267.733 9.016,264.703 8.545 C 263.880 8.418,263.306 8.153,263.427 7.957 C 263.548 7.760,263.017 7.600,262.247 7.600 C 261.477 7.600,260.736 7.420,260.600 7.200 C 260.464 6.980,259.823 6.800,259.176 6.800 C 258.529 6.800,258.000 6.620,258.000 6.400 C 258.000 6.180,257.381 6.000,256.624 6.000 C 255.867 6.000,255.136 5.820,255.000 5.600 C 254.864 5.380,254.033 5.200,253.153 5.200 C 252.188 5.200,251.651 5.041,251.800 4.800 C 251.949 4.559,251.412 4.400,250.447 4.400 C 249.567 4.400,248.736 4.220,248.600 4.000 C 248.464 3.780,247.553 3.600,246.576 3.600 C 245.599 3.600,244.800 3.420,244.800 3.200 C 244.800 2.980,243.821 2.800,242.624 2.800 C 241.427 2.800,240.336 2.620,240.200 2.400 C 240.064 2.180,239.074 2.000,238.000 2.000 C 236.926 2.000,235.954 1.849,235.839 1.664 C 235.725 1.478,234.420 1.288,232.939 1.240 C 231.459 1.192,230.057 1.033,229.824 0.888 C 229.591 0.742,229.130 0.557,228.800 0.476 C 227.936 0.265,187.689 0.088,183.403 0.276 " stroke="none" fill="#ec4434" fill-rule="evenodd"></path></g></svg>