<svg id="svg" version="1.1" xmlns="http://www.w3.org/2000/svg" xmlns:xlink="http://www.w3.org/1999/xlink" width="400" height="400" viewBox="0, 0, 400,400"><g id="svgg"><path id="path0" d="M184.353 2.779 C 178.057 5.777,13.044 169.018,6.666 178.558 C -9.592 202.875,6.523 233.904,36.716 236.422 L 42.901 236.938 43.145 300.695 C 43.384 363.262,43.419 364.534,45.029 368.768 C 50.734 383.778,59.588 392.726,73.392 397.432 C 80.973 400.016,152.657 400.213,156.843 397.660 C 162.787 394.037,162.493 396.954,162.501 341.406 C 162.510 282.768,162.532 282.628,172.486 276.776 L 176.172 274.609 200.843 274.609 L 225.513 274.609 229.358 276.981 C 239.085 282.981,239.043 282.703,239.054 342.031 C 239.063 394.731,238.906 392.724,243.348 396.875 L 245.437 398.828 283.035 399.046 C 308.214 399.191,322.002 398.979,324.779 398.402 C 335.564 396.163,348.026 386.664,352.932 376.944 C 358.441 366.027,358.124 370.471,358.411 300.293 L 358.670 236.914 365.077 236.361 C 387.476 234.429,400.000 221.109,400.000 199.219 C 400.000 180.866,408.955 191.460,308.747 91.253 C 208.540 -8.955,219.134 0.000,200.781 0.000 C 190.259 0.000,190.152 0.018,184.353 2.779 M206.004 24.257 C 208.804 25.300,373.810 190.140,375.393 193.475 C 380.989 205.268,373.748 211.927,354.707 212.500 C 340.636 212.923,339.004 213.385,336.144 217.749 C 334.860 219.707,334.739 224.693,334.375 290.199 C 334.018 354.494,333.869 360.791,332.646 363.382 C 330.566 367.790,327.502 370.980,323.140 373.280 L 319.141 375.389 291.252 375.645 L 263.363 375.902 263.108 330.724 C 262.805 277.228,262.665 276.411,251.651 263.944 C 241.280 252.206,235.256 250.501,202.969 250.164 C 168.700 249.807,163.030 251.165,151.476 262.500 C 138.939 274.800,138.312 278.140,138.295 332.678 L 138.281 375.902 110.352 375.646 L 82.422 375.391 78.153 373.047 C 66.827 366.829,67.188 369.615,67.185 288.438 C 67.181 205.052,69.356 213.177,46.856 212.500 C 27.814 211.927,20.573 205.268,26.169 193.475 C 27.635 190.386,192.646 25.346,195.313 24.301 C 197.939 23.273,203.302 23.250,206.004 24.257 " stroke="none" fill="#000000" fill-rule="evenodd"></path></g></svg>