<svg id="svg" version="1.1" xmlns="http://www.w3.org/2000/svg" xmlns:xlink="http://www.w3.org/1999/xlink" width="400" height="400" viewBox="0, 0, 400,400"><g id="svgg"><path id="path0" d="M189.453 1.056 C 179.747 4.265,181.633 2.506,93.129 90.895 C -4.717 188.615,0.000 183.089,0.000 200.000 C -0.000 220.899,13.978 235.372,35.931 237.203 L 42.112 237.718 42.364 301.476 C 42.611 363.972,42.649 365.320,44.252 369.549 C 50.097 384.968,59.857 394.493,74.165 398.740 C 81.335 400.869,152.507 400.609,156.062 398.442 C 162.005 394.818,161.712 397.735,161.720 342.188 C 161.729 283.549,161.750 283.409,171.705 277.557 L 175.391 275.391 200.061 275.391 L 224.732 275.391 228.577 277.762 C 238.304 283.762,238.262 283.484,238.273 342.812 C 238.282 395.512,238.125 393.505,242.566 397.656 L 244.656 399.609 282.254 399.827 C 307.433 399.972,321.221 399.760,323.998 399.183 C 334.782 396.945,347.245 387.446,352.151 377.725 C 357.660 366.809,357.343 371.252,357.629 301.074 L 357.889 237.695 364.296 237.142 C 386.424 235.234,399.609 221.366,399.609 200.000 C 399.609 182.153,408.103 192.160,307.971 92.029 C 208.635 -7.308,217.813 0.583,201.172 0.214 C 195.648 0.091,191.462 0.392,189.453 1.056 " stroke="none" fill="#000000" fill-rule="evenodd"></path></g></svg>