<?xml version="1.0" encoding="iso-8859-1"?>
<!-- Generator: Adobe Illustrator 19.0.0, SVG Export Plug-In . SVG Version: 6.00 Build 0)  -->
<svg version="1.1" id="Layer_1" xmlns="http://www.w3.org/2000/svg" xmlns:xlink="http://www.w3.org/1999/xlink" x="0px" y="0px"
	 viewBox="0 0 512 512" style="enable-background:new 0 0 512 512;" xml:space="preserve">
<g>
	<g>
		<g>
			<path d="M495.195,266.768c-6.014-6.013-12.707-10.398-19.849-13.072v-69.902h-15.6v66.837c-0.886-0.025-1.776-0.027-2.67-0.004
				c-13.497,0.352-26.889,6.506-37.711,17.328l-0.179,0.179v-12.582h-15.6v10.368c-10.513-9.552-23.792-14.96-37.707-15.292
				c-12.851-0.327-25.094,3.786-35.091,11.62v-78.454h-15.6v97.425c-8.396,16.417-8.417,36.039,0,52.449v148.862h-17.68v-8.584
				h-15.6v8.584h-16.64V183.793h-15.6V482.53H47.921V183.278h-15.6V498.13h443.857V367.511l19.017-19.469
				C517.601,325.633,517.601,289.174,495.195,266.768z M460.578,482.529H330.79V353.017l81.903,79.487l47.886-49.023V482.529z
				 M484.1,337.076l-23.412,23.967h-0.109v0.112l-48.18,49.325l-75.743-73.51c-2.278-2.284-4.225-4.773-5.865-7.4l-0.74-1.222
				c-9.243-16.009-7.032-36.872,6.646-50.551c7.723-7.724,17.96-11.831,28.814-11.576c10.85,0.259,21.214,4.791,29.186,12.763
				l17.85,17.85l17.851-17.85c8.098-8.099,17.465-12.513,27.087-12.764c9.611-0.253,18.856,3.751,26.68,11.577
				C500.489,294.122,500.489,320.685,484.1,337.076z"/>
			<rect x="403.583" y="232.673" width="15.6" height="14.56"/>
			<path d="M404.016,223.679h15.6v-48.762h88.883V94.674h-69.299c7.902-8.588,12.737-20.039,12.737-32.602
				c0-26.579-21.623-48.202-48.202-48.202h-72.723c-16.905,0-31.795,8.755-40.402,21.961c-8.607-13.207-23.496-21.961-40.401-21.961
				h-64.643c-26.579,0-48.202,21.623-48.202,48.202c0,12.562,4.835,24.013,12.737,32.602H0v80.242h404.016V223.679z
				 M492.899,110.273v49.043h-73.283v-22.22c0-10.167-3.598-19.508-9.584-26.823H492.899z M298.41,62.072
				c0-17.977,14.625-32.602,32.602-32.602h72.723c17.977,0,32.602,14.625,32.602,32.602s-14.625,32.602-32.602,32.602h-26.541
				h-13.86h-56.563h-8.361V62.072z M185.567,29.47h64.643c17.977,0,32.601,14.625,32.601,32.602v32.602h-97.244
				c-17.977,0-32.602-14.625-32.602-32.602S167.59,29.47,185.567,29.47z M233.032,159.317H15.6v-49.043h169.967h47.465V159.317z
				 M330.79,159.317h-33.279v-8.802h-15.6v8.802h-33.279v-49.043h33.279v8.001h15.6v-8.001h0.9h8.361h24.018V159.317z
				 M346.389,159.317v-49.043h16.944h13.86c14.791,0,26.823,12.033,26.823,26.823v22.22H346.389z"/>
			<rect x="281.906" y="183.794" width="15.6" height="15.6"/>
			<rect x="281.906" y="207.714" width="15.6" height="16.64"/>
			<rect x="281.906" y="232.673" width="15.6" height="14.56"/>
			<rect x="281.906" y="255.553" width="15.6" height="16.64"/>
			<rect x="281.906" y="279.472" width="15.6" height="16.64"/>
			<rect x="281.906" y="304.431" width="15.6" height="16.64"/>
			<rect x="281.906" y="328.351" width="15.6" height="16.64"/>
			<rect x="281.906" y="353.31" width="15.6" height="16.64"/>
			<rect x="281.906" y="377.23" width="15.6" height="16.64"/>
			<rect x="281.906" y="401.149" width="15.6" height="15.6"/>
			<rect x="281.906" y="425.068" width="15.6" height="16.64"/>
			<rect x="281.906" y="450.028" width="15.6" height="15.6"/>
			<rect x="281.906" y="126.596" width="15.6" height="15.6"/>
			<path d="M64.643,337.084v128.724h169.126V337.084H64.643z M218.169,450.208H80.242v-97.525h137.927V450.208z"/>
			<rect x="95.761" y="369.95" width="24.959" height="15.6"/>
			<rect x="95.761" y="393.869" width="65.518" height="15.6"/>
			<rect x="169.589" y="393.869" width="32.239" height="15.6"/>
			<rect x="95.761" y="417.789" width="16.64" height="15.6"/>
			<rect x="120.72" y="417.789" width="16.64" height="15.6"/>
			<rect x="144.629" y="417.789" width="16.64" height="15.6"/>
			<rect x="169.589" y="417.789" width="16.64" height="15.6"/>
		</g>
	</g>
</g>
<g>
</g>
<g>
</g>
<g>
</g>
<g>
</g>
<g>
</g>
<g>
</g>
<g>
</g>
<g>
</g>
<g>
</g>
<g>
</g>
<g>
</g>
<g>
</g>
<g>
</g>
<g>
</g>
<g>
</g>
</svg>
