<svg width="33" height="34" viewBox="0 0 33 34" fill="none" xmlns="http://www.w3.org/2000/svg">
<g clip-path="url(#clip0_2_19915)">
<path fill-rule="evenodd" clip-rule="evenodd" d="M2.0625 17C2.0625 20.8291 3.58359 24.5013 6.29115 27.2089C8.9987 29.9164 12.6709 31.4375 16.5 31.4375C20.3291 31.4375 24.0013 29.9164 26.7089 27.2089C29.4164 24.5013 30.9375 20.8291 30.9375 17C30.9375 13.1709 29.4164 9.4987 26.7089 6.79115C24.0013 4.08359 20.3291 2.5625 16.5 2.5625C12.6709 2.5625 8.9987 4.08359 6.29115 6.79115C3.58359 9.4987 2.0625 13.1709 2.0625 17ZM33 17C33 21.3761 31.2616 25.5729 28.1673 28.6673C25.0729 31.7616 20.8761 33.5 16.5 33.5C12.1239 33.5 7.92709 31.7616 4.83274 28.6673C1.73839 25.5729 0 21.3761 0 17C0 12.6239 1.73839 8.42709 4.83274 5.33274C7.92709 2.23839 12.1239 0.5 16.5 0.5C20.8761 0.5 25.0729 2.23839 28.1673 5.33274C31.2616 8.42709 33 12.6239 33 17ZM23.7188 15.9688C23.9923 15.9688 24.2546 16.0774 24.448 16.2708C24.6414 16.4642 24.75 16.7265 24.75 17C24.75 17.2735 24.6414 17.5358 24.448 17.7292C24.2546 17.9226 23.9923 18.0312 23.7188 18.0312H11.7707L16.1989 22.4574C16.2948 22.5533 16.3708 22.6671 16.4227 22.7924C16.4746 22.9176 16.5013 23.0519 16.5013 23.1875C16.5013 23.3231 16.4746 23.4574 16.4227 23.5826C16.3708 23.7079 16.2948 23.8217 16.1989 23.9176C16.103 24.0135 15.9892 24.0896 15.8639 24.1415C15.7386 24.1933 15.6043 24.2201 15.4688 24.2201C15.3332 24.2201 15.1989 24.1933 15.0736 24.1415C14.9483 24.0896 14.8345 24.0135 14.7386 23.9176L8.55112 17.7301C8.45509 17.6343 8.37889 17.5205 8.32691 17.3952C8.27492 17.27 8.24816 17.1356 8.24816 17C8.24816 16.8644 8.27492 16.73 8.32691 16.6048C8.37889 16.4795 8.45509 16.3657 8.55112 16.2699L14.7386 10.0824C14.9323 9.88873 15.1949 9.77995 15.4688 9.77995C15.7426 9.77995 16.0052 9.88873 16.1989 10.0824C16.3925 10.276 16.5013 10.5386 16.5013 10.8125C16.5013 11.0864 16.3925 11.349 16.1989 11.5426L11.7707 15.9688H23.7188Z" fill="#AB2639"/>
</g>
<defs>
<clipPath id="clip0_2_19915">
<rect width="33" height="33" fill="white" transform="translate(0 0.5)"/>
</clipPath>
</defs>
</svg>
