<svg id="svg" version="1.1" xmlns="http://www.w3.org/2000/svg" xmlns:xlink="http://www.w3.org/1999/xlink" width="400" height="400" viewBox="0, 0, 400,400"><g id="svgg"><path id="path0" d="M46.521 51.201 C 30.643 55.557,17.768 68.476,13.738 84.097 C 11.855 91.396,11.855 308.604,13.738 315.903 C 17.788 331.600,30.847 344.580,46.875 348.839 C 53.656 350.642,346.404 350.567,353.403 348.762 C 368.981 344.743,382.243 331.481,386.262 315.903 C 388.145 308.604,388.145 91.396,386.262 84.097 C 382.243 68.519,368.981 55.257,353.403 51.238 C 346.681 49.504,52.837 49.469,46.521 51.201 M349.289 77.049 C 357.494 80.844,361.460 87.336,362.192 98.167 L 362.659 105.078 281.329 157.310 L 200.000 209.542 118.671 157.310 L 37.341 105.078 37.803 98.237 C 38.683 85.204,44.583 77.619,55.252 75.804 C 57.305 75.455,123.496 75.219,202.344 75.280 L 345.703 75.391 349.289 77.049 M116.016 186.491 C 204.176 243.131,194.906 237.500,200.000 237.500 C 202.205 237.500,204.777 237.090,205.715 236.590 C 207.766 235.496,360.114 137.648,361.546 136.506 C 363.586 134.878,362.508 307.341,360.451 311.789 C 358.335 316.364,353.864 320.835,349.289 322.951 L 345.703 324.609 200.000 324.609 L 54.297 324.609 50.711 322.951 C 46.136 320.835,41.665 316.364,39.549 311.789 C 37.492 307.341,36.414 134.878,38.454 136.506 C 39.003 136.944,73.906 159.438,116.016 186.491 " stroke="none" fill="#000000" fill-rule="evenodd"></path></g></svg>