<svg id="svg" version="1.1" xmlns="http://www.w3.org/2000/svg" xmlns:xlink="http://www.w3.org/1999/xlink" width="400" height="400" viewBox="0, 0, 400,400"><g id="svgg"><path id="path0" d="M45.659 51.466 C 29.328 56.143,16.741 70.031,13.001 87.500 C 12.618 89.291,194.882 208.935,199.636 210.013 C 202.320 210.622,387.457 89.569,387.006 87.500 C 383.139 69.747,370.577 56.021,353.985 51.421 C 346.233 49.271,53.173 49.314,45.659 51.466 M12.500 214.541 C 12.500 300.140,12.641 311.648,13.738 315.903 C 17.788 331.600,30.847 344.580,46.875 348.839 C 53.656 350.642,346.404 350.567,353.403 348.762 C 368.986 344.741,382.242 331.482,386.265 315.891 C 387.372 311.599,387.485 300.652,387.308 214.663 L 387.109 118.246 299.219 175.177 C 196.882 241.464,204.563 236.702,199.964 236.711 C 195.592 236.720,204.750 242.402,104.297 177.362 C 59.609 148.428,20.674 123.231,17.773 121.367 L 12.500 117.979 12.500 214.541 " stroke="none" fill="#000000" fill-rule="evenodd"></path></g></svg>