<svg id="svg" version="1.1" xmlns="http://www.w3.org/2000/svg" xmlns:xlink="http://www.w3.org/1999/xlink" width="400" height="400" viewBox="0, 0, 400,400"><g id="svgg"><path id="path0" d="M192.527 32.140 C 132.990 36.334,99.575 106.173,133.054 156.444 C 168.170 209.173,249.552 201.943,273.767 143.944 C 297.570 86.930,254.582 27.768,192.527 32.140 M163.281 208.988 C 91.485 218.805,35.971 278.333,32.144 349.609 C 31.348 364.442,32.332 367.168,38.872 368.249 C 44.816 369.232,359.583 368.726,362.427 367.729 C 368.477 365.609,369.645 357.406,366.729 337.500 C 356.843 270.008,303.912 217.791,236.483 209.013 C 224.594 207.465,174.545 207.448,163.281 208.988 " stroke="none" fill="#000000" fill-rule="evenodd"></path></g></svg>