<svg id="svg" version="1.1" xmlns="http://www.w3.org/2000/svg" xmlns:xlink="http://www.w3.org/1999/xlink" width="400" height="400" viewBox="0, 0, 400,400"><g id="svgg"><path id="path0" d="M182.813 33.500 C 127.878 45.464,101.877 109.720,133.063 156.444 C 172.485 215.507,263.799 198.016,278.573 128.573 C 290.640 71.852,239.562 21.141,182.813 33.500 M211.494 49.613 C 258.325 58.497,279.097 113.739,249.724 151.279 C 221.874 186.872,166.101 182.044,144.259 142.149 C 118.883 95.801,159.595 39.768,211.494 49.613 M163.281 208.992 C 91.419 218.849,35.973 278.303,32.144 349.609 C 31.348 364.442,32.332 367.168,38.872 368.249 C 44.816 369.232,359.583 368.726,362.427 367.729 C 368.477 365.609,369.645 357.406,366.729 337.500 C 356.845 270.018,303.902 217.789,236.483 209.013 C 224.576 207.463,174.534 207.448,163.281 208.992 M229.019 225.038 C 293.770 231.598,344.830 282.284,351.165 346.289 L 351.687 351.563 200.000 351.563 L 48.313 351.563 48.835 346.289 C 55.116 282.830,106.115 231.780,169.922 225.083 C 179.107 224.119,219.640 224.088,229.019 225.038 " stroke="none" fill="#000000" fill-rule="evenodd"></path></g></svg>