<svg id="svg" version="1.1" xmlns="http://www.w3.org/2000/svg" xmlns:xlink="http://www.w3.org/1999/xlink" width="400" height="400" viewBox="0, 0, 400,400"><g id="svgg"><path id="path0" d="M63.095 45.267 C 51.775 48.886,42.071 58.843,38.739 70.259 C 36.647 77.426,36.875 323.634,38.980 330.398 C 42.563 341.911,52.456 351.639,64.009 355.011 C 71.180 357.105,329.883 356.875,336.648 354.770 C 348.161 351.187,357.889 341.294,361.261 329.741 C 363.149 323.274,363.149 76.726,361.261 70.259 C 357.889 58.706,348.161 48.813,336.648 45.230 C 329.357 42.961,70.199 42.996,63.095 45.267 M326.893 69.498 C 330.734 70.389,333.537 72.450,335.547 75.863 C 337.091 78.485,337.109 79.921,337.109 200.000 C 337.109 335.689,337.573 324.115,331.971 328.291 C 328.149 331.139,324.828 331.213,200.000 331.213 C 75.172 331.213,71.851 331.139,68.029 328.291 C 62.427 324.115,62.891 335.689,62.891 200.000 C 62.891 79.921,62.909 78.485,64.453 75.863 C 66.393 72.570,69.309 70.346,72.752 69.533 C 76.478 68.653,323.105 68.619,326.893 69.498 M148.828 118.384 C 148.398 118.510,146.992 118.844,145.703 119.126 C 143.154 119.683,103.222 158.667,101.115 162.657 C 98.227 168.122,100.468 176.528,105.657 179.692 C 109.657 182.131,284.093 182.131,288.093 179.692 C 295.801 174.992,295.801 162.508,288.093 157.808 C 285.602 156.289,284.016 156.256,214.466 156.253 L 143.385 156.250 152.076 147.461 C 161.922 137.504,162.680 136.347,162.680 131.268 C 162.680 123.671,155.038 116.563,148.828 118.384 M118.157 226.558 C 114.345 228.883,112.506 232.443,112.506 237.500 C 112.506 242.557,114.345 246.117,118.157 248.442 C 120.648 249.961,122.234 249.994,191.784 249.997 L 262.865 250.000 254.174 258.789 C 244.322 268.752,243.570 269.902,243.570 275.000 C 243.570 284.666,253.739 290.937,262.169 286.470 C 264.826 285.062,304.103 245.751,305.386 243.215 C 308.012 238.027,305.588 229.604,300.593 226.558 C 296.593 224.119,122.157 224.119,118.157 226.558 " stroke="none" fill="#000000" fill-rule="evenodd"></path></g></svg>