<svg id="svg" version="1.1" xmlns="http://www.w3.org/2000/svg" xmlns:xlink="http://www.w3.org/1999/xlink" width="400" height="400" viewBox="0, 0, 400,400"><g id="svgg"><path id="path0" d="M63.095 45.267 C 51.775 48.886,42.071 58.843,38.739 70.259 C 36.647 77.426,36.875 323.634,38.980 330.398 C 42.563 341.911,52.456 351.639,64.009 355.011 C 71.180 357.105,329.883 356.875,336.648 354.770 C 348.161 351.187,357.889 341.294,361.261 329.741 C 363.149 323.274,363.149 76.726,361.261 70.259 C 357.889 58.706,348.161 48.813,336.648 45.230 C 329.357 42.961,70.199 42.996,63.095 45.267 M154.688 121.129 C 164.643 126.322,163.488 134.343,150.954 147.050 L 141.920 156.210 212.952 156.425 C 283.003 156.638,284.022 156.663,286.716 158.245 C 295.107 163.175,295.107 174.325,286.716 179.255 C 282.411 181.783,111.339 181.783,107.034 179.255 C 101.411 175.951,99.076 168.758,101.901 163.438 C 103.761 159.936,142.296 122.056,145.313 120.765 C 147.982 119.623,152.106 119.783,154.688 121.129 M299.216 226.995 C 304.630 230.176,307.152 237.402,304.605 242.434 C 303.374 244.866,263.319 285.032,260.781 286.380 C 253.339 290.331,243.760 284.457,243.753 275.938 C 243.749 271.132,244.913 269.423,255.037 259.375 L 264.089 250.391 193.177 250.000 C 123.410 249.616,122.222 249.583,119.534 248.005 C 109.717 242.238,111.789 228.420,122.871 225.750 C 129.576 224.134,296.351 225.312,299.216 226.995 " stroke="none" fill="#000000" fill-rule="evenodd"></path></g></svg>